<?xml version="1.0" encoding="UTF-8"?>
<svg xmlns="http://www.w3.org/2000/svg" xmlns:xlink="http://www.w3.org/1999/xlink" width="200px" height="px" viewBox="0 0 200 245" version="1.1">
    <g id="surface1">
        <path style=" stroke:none;fill-rule:nonzero;fill:rgb(98.431373%,76.470588%,4.705882%);fill-opacity:1;" d="M 147.964844 46.441406 L 140.320312 46.441406 C 148.140625 64.230469 145.941406 77.109375 143.835938 89.640625 C 141.550781 103.046875 139.355469 115.753906 149.632812 135.554688 L 141.199219 139.9375 C 129.515625 117.332031 132.152344 101.734375 134.433594 88.0625 C 136.542969 75.53125 138.5625 63.703125 129.78125 46.441406 L 27.703125 46.441406 C 19.445312 62.738281 21.464844 81.578125 29.546875 97.265625 C 38.683594 114.875 49.664062 120.222656 61.261719 125.828125 C 73.820312 131.875 87.964844 138.710938 99.738281 161.40625 L 91.304688 165.785156 C 81.027344 145.984375 69.429688 140.375 57.21875 134.417969 C 44.746094 128.371094 31.832031 122.148438 21.203125 101.734375 C 11.101562 82.367188 10.136719 63.003906 17.074219 46.441406 L 12.507812 46.441406 C 5.566406 46.441406 0.03125 51.960938 0.03125 58.796875 L 0.03125 194.003906 C 0.03125 200.835938 5.566406 206.355469 12.417969 206.355469 L 133.03125 206.355469 L 159.472656 192.777344 C 159.734375 192.601562 160.085938 192.511719 160.347656 192.425781 L 160.347656 182.960938 C 150.335938 186.90625 144.011719 186.378906 137.160156 186.203125 C 129.253906 186.027344 120.46875 186.203125 109.574219 191.8125 C 107.640625 192.777344 105.269531 192.074219 104.214844 190.148438 C 103.25 188.21875 103.953125 185.851562 105.972656 184.800781 C 118.710938 178.230469 125.300781 178.929688 133.558594 179.195312 C 140.9375 179.367188 149.457031 179.195312 160.4375 174.375 L 160.4375 165.613281 C 160.4375 165.613281 160.4375 165.613281 160.347656 165.613281 C 145.855469 173.058594 138.300781 172.359375 129.867188 172.097656 C 121.960938 171.921875 113.175781 172.097656 102.285156 177.703125 C 100.351562 178.667969 97.980469 177.964844 96.925781 176.039062 C 95.960938 174.109375 96.660156 171.746094 98.683594 170.695312 C 111.417969 164.121094 118.007812 164.824219 126.265625 165.085938 C 134.433594 165.347656 144.011719 165.085938 156.660156 158.601562 C 157.890625 157.988281 159.207031 158.074219 160.347656 158.601562 L 160.347656 58.796875 C 160.347656 51.960938 154.816406 46.441406 147.964844 46.441406 Z M 113.265625 198.910156 C 126.003906 192.335938 132.765625 193.300781 141.023438 193.5625 L 116.867188 205.917969 C 114.933594 206.882812 112.5625 206.183594 111.507812 204.253906 C 110.542969 202.328125 111.242188 199.871094 113.265625 198.910156 Z M 118.449219 135.90625 C 112.210938 123.902344 112.914062 112.421875 113.351562 103.222656 L 113.527344 93.234375 L 113.351562 90.253906 C 113.265625 85.347656 112.824219 83.769531 111.59375 83.507812 C 109.925781 83.15625 109.3125 83.417969 107.203125 87.097656 L 105.796875 89.378906 C 103.074219 93.234375 100.175781 96.300781 93.851562 99.542969 C 87.527344 102.785156 83.308594 103.398438 78.566406 103.308594 L 75.929688 103.136719 C 71.714844 102.695312 71.097656 103.046875 70.484375 104.625 C 69.957031 105.761719 71.011719 106.992188 74.964844 109.96875 L 77.335938 111.808594 L 85.59375 117.503906 C 93.410156 122.414062 103.164062 128.546875 109.398438 140.550781 L 115.8125 152.992188 L 107.992188 157.023438 L 101.582031 144.582031 C 96.484375 134.679688 88.582031 129.683594 80.9375 124.867188 L 71.714844 118.46875 L 69.78125 116.980469 C 66.09375 114.175781 59.152344 109.003906 62.402344 101.207031 C 65.742188 93.234375 73.207031 94.023438 76.898438 94.371094 L 78.742188 94.546875 C 81.816406 94.636719 84.628906 94.460938 89.808594 91.742188 C 94.992188 89.027344 96.75 86.925781 98.507812 84.382812 L 99.472656 82.804688 C 101.316406 79.652344 105.007812 73.078125 113.351562 75.007812 C 121.609375 76.847656 121.875 85.523438 121.960938 90.078125 L 122.050781 92.53125 L 122.136719 103.660156 C 121.609375 112.6875 121.082031 121.972656 126.265625 131.875 L 132.679688 144.320312 L 124.859375 148.347656 Z M 153.058594 151.503906 C 140.320312 158.074219 133.558594 157.113281 125.300781 156.847656 L 149.367188 144.40625 C 151.300781 143.441406 153.671875 144.144531 154.726562 146.160156 C 155.78125 148.175781 154.992188 150.539062 153.058594 151.503906 Z M 153.058594 151.503906 "/>
        <path style=" stroke:none;fill-rule:nonzero;fill:rgb(79.607843%,10.588235%,10.980392%);fill-opacity:1;" d="M 189.339844 42.148438 C 171.679688 2.191406 110.453125 -25.675781 64.949219 36.539062 C 127.496094 41.535156 158.152344 80.703125 164.390625 97.878906 C 166.761719 102.082031 152.53125 145.894531 189.601562 157.375 C 183.804688 95.949219 204.710938 79.386719 189.339844 42.148438 Z M 189.339844 42.148438 "/>
        <path style=" stroke:none;fill-rule:nonzero;fill:rgb(97.647059%,97.647059%,97.647059%);fill-opacity:1;" d="M 199.878906 154.21875 C 198.824219 161.667969 191.886719 166.925781 184.417969 165.875 C 181.167969 165.4375 178.359375 163.859375 176.25 161.582031 C 173.613281 158.6875 172.296875 154.660156 172.824219 150.453125 C 173.085938 148.613281 173.703125 146.859375 174.667969 145.28125 C 177.480469 140.726562 182.75 138.007812 188.371094 138.710938 C 195.75 139.761719 200.933594 146.683594 199.878906 154.21875 Z M 199.878906 154.21875 "/>
        <path style=" stroke:none;fill-rule:nonzero;fill:rgb(90.980392%,90.980392%,90.980392%);fill-opacity:1;" d="M 192.675781 164.386719 C 190.214844 165.699219 187.316406 166.3125 184.332031 165.875 C 181.082031 165.4375 178.183594 163.859375 176.160156 161.582031 C 173.527344 158.6875 172.207031 154.660156 172.734375 150.453125 C 173 148.613281 173.613281 146.859375 174.582031 145.28125 C 177.128906 141.078125 181.871094 138.359375 186.964844 138.621094 C 184.769531 139.761719 182.925781 141.515625 181.609375 143.707031 C 180.640625 145.28125 180.027344 146.949219 179.761719 148.875 C 179.148438 153.082031 180.554688 157.113281 183.1875 160.003906 C 185.296875 162.28125 188.109375 163.859375 191.359375 164.296875 C 191.886719 164.296875 192.324219 164.386719 192.675781 164.386719 Z M 192.675781 164.386719 "/>
        <path style=" stroke:none;fill-rule:nonzero;fill:rgb(73.333333%,6.666667%,9.803922%);fill-opacity:1;" d="M 173 85.433594 C 173.175781 87.011719 173.351562 88.5 173.4375 89.992188 C 181.082031 80.789062 184.066406 68.699219 178.535156 44.6875 C 182.3125 68.433594 179.410156 78.425781 173 85.433594 Z M 173 85.433594 "/>
        <path style=" stroke:none;fill-rule:nonzero;fill:rgb(97.647059%,97.647059%,97.647059%);fill-opacity:1;" d="M 168.695312 67.648438 C 168.695312 67.648438 147.699219 8.148438 79.707031 25.148438 C 79.53125 25.234375 77.6875 25.847656 77.511719 25.9375 C 77.511719 25.9375 58.097656 33.386719 56.339844 46.441406 L 83.484375 46.441406 C 83.660156 46.441406 83.75 46.441406 83.925781 46.441406 L 84.277344 46.441406 C 94.554688 46.527344 107.640625 49.332031 123.542969 58.183594 C 123.542969 58.183594 160.085938 80.175781 160.261719 113.648438 C 160.347656 113.5625 184.066406 107.164062 168.695312 67.648438 Z M 168.695312 67.648438 "/>
        <path style=" stroke:none;fill-rule:nonzero;fill:rgb(90.980392%,90.980392%,90.980392%);fill-opacity:1;" d="M 83.925781 46.355469 L 84.277344 46.355469 C 94.554688 46.441406 107.640625 49.246094 123.542969 58.09375 C 123.542969 58.09375 160.085938 80.089844 160.261719 113.5625 C 160.261719 113.5625 183.980469 107.164062 168.695312 67.648438 C 168.695312 67.648438 179.5 124.429688 151.652344 79.738281 C 123.894531 35.136719 67.671875 46.441406 67.671875 46.441406 L 83.574219 46.441406 C 83.660156 46.355469 83.835938 46.355469 83.925781 46.355469 Z M 83.925781 46.355469 "/>
    </g>
</svg>
